<mxfile host="app.diagrams.net" agent="Mozilla/5.0 (Windows NT 10.0; Win64; x64) AppleWebKit/537.36 (KHTML, like Gecko) Chrome/133.0.0.0 Safari/537.36" version="26.0.14">
  <diagram id="C5RBs43oDa-KdzZeNtuy" name="Page-1">
    <mxGraphModel grid="1" page="1" gridSize="10" guides="1" tooltips="1" connect="1" arrows="1" fold="1" pageScale="1" pageWidth="827" pageHeight="1169" math="0" shadow="0">
      <root>
        <mxCell id="WIyWlLk6GJQsqaUBKTNV-0" />
        <mxCell id="WIyWlLk6GJQsqaUBKTNV-1" parent="WIyWlLk6GJQsqaUBKTNV-0" />
        <mxCell id="zkfFHV4jXpPFQw0GAbJ--0" value="&lt;&lt;Abstract&gt;&gt;&#xa;NetworkManager" style="swimlane;fontStyle=2;align=center;verticalAlign=top;childLayout=stackLayout;horizontal=1;startSize=40;horizontalStack=0;resizeParent=1;resizeLast=0;collapsible=1;marginBottom=0;rounded=0;shadow=0;strokeWidth=1;" vertex="1" parent="WIyWlLk6GJQsqaUBKTNV-1">
          <mxGeometry x="370" y="188" width="160" height="50" as="geometry">
            <mxRectangle x="230" y="140" width="160" height="26" as="alternateBounds" />
          </mxGeometry>
        </mxCell>
        <mxCell id="VLd0et0WoPOrGzT45V3k-0" value="DatabaseManager" style="swimlane;fontStyle=1;align=center;verticalAlign=top;childLayout=stackLayout;horizontal=1;startSize=26;horizontalStack=0;resizeParent=1;resizeParentMax=0;resizeLast=0;collapsible=1;marginBottom=0;whiteSpace=wrap;html=1;" vertex="1" parent="WIyWlLk6GJQsqaUBKTNV-1">
          <mxGeometry y="360" width="280" height="120" as="geometry" />
        </mxCell>
        <mxCell id="VLd0et0WoPOrGzT45V3k-1" value="+ field: type" style="text;strokeColor=none;fillColor=none;align=left;verticalAlign=top;spacingLeft=4;spacingRight=4;overflow=hidden;rotatable=0;points=[[0,0.5],[1,0.5]];portConstraint=eastwest;whiteSpace=wrap;html=1;" vertex="1" parent="VLd0et0WoPOrGzT45V3k-0">
          <mxGeometry y="26" width="280" height="26" as="geometry" />
        </mxCell>
        <mxCell id="VLd0et0WoPOrGzT45V3k-2" value="" style="line;strokeWidth=1;fillColor=none;align=left;verticalAlign=middle;spacingTop=-1;spacingLeft=3;spacingRight=3;rotatable=0;labelPosition=right;points=[];portConstraint=eastwest;strokeColor=inherit;" vertex="1" parent="VLd0et0WoPOrGzT45V3k-0">
          <mxGeometry y="52" width="280" height="8" as="geometry" />
        </mxCell>
        <mxCell id="VLd0et0WoPOrGzT45V3k-3" value="+ getWaitingPlayers(): queue&amp;lt;Player&amp;gt;&lt;div&gt;+ findRelatedPassword(username: String): String&lt;/div&gt;&lt;div&gt;+ ...&lt;br&gt;&lt;div&gt;&lt;br&gt;&lt;/div&gt;&lt;/div&gt;" style="text;strokeColor=none;fillColor=none;align=left;verticalAlign=top;spacingLeft=4;spacingRight=4;overflow=hidden;rotatable=0;points=[[0,0.5],[1,0.5]];portConstraint=eastwest;whiteSpace=wrap;html=1;" vertex="1" parent="VLd0et0WoPOrGzT45V3k-0">
          <mxGeometry y="60" width="280" height="60" as="geometry" />
        </mxCell>
        <mxCell id="VLd0et0WoPOrGzT45V3k-4" value="GameServerManager" style="swimlane;fontStyle=1;align=center;verticalAlign=top;childLayout=stackLayout;horizontal=1;startSize=26;horizontalStack=0;resizeParent=1;resizeParentMax=0;resizeLast=0;collapsible=1;marginBottom=0;whiteSpace=wrap;html=1;" vertex="1" parent="WIyWlLk6GJQsqaUBKTNV-1">
          <mxGeometry x="560" y="360" width="440" height="120" as="geometry" />
        </mxCell>
        <mxCell id="VLd0et0WoPOrGzT45V3k-5" value="+ field: type" style="text;strokeColor=none;fillColor=none;align=left;verticalAlign=top;spacingLeft=4;spacingRight=4;overflow=hidden;rotatable=0;points=[[0,0.5],[1,0.5]];portConstraint=eastwest;whiteSpace=wrap;html=1;" vertex="1" parent="VLd0et0WoPOrGzT45V3k-4">
          <mxGeometry y="26" width="440" height="26" as="geometry" />
        </mxCell>
        <mxCell id="VLd0et0WoPOrGzT45V3k-6" value="" style="line;strokeWidth=1;fillColor=none;align=left;verticalAlign=middle;spacingTop=-1;spacingLeft=3;spacingRight=3;rotatable=0;labelPosition=right;points=[];portConstraint=eastwest;strokeColor=inherit;" vertex="1" parent="VLd0et0WoPOrGzT45V3k-4">
          <mxGeometry y="52" width="440" height="8" as="geometry" />
        </mxCell>
        <mxCell id="VLd0et0WoPOrGzT45V3k-7" value="+ createMatch(player1: Player, player2: Player, game: Game): Match&lt;div&gt;+ updateGameState(player: Player, game_state: Game)&lt;/div&gt;&lt;div&gt;+ ...&lt;/div&gt;" style="text;strokeColor=none;fillColor=none;align=left;verticalAlign=top;spacingLeft=4;spacingRight=4;overflow=hidden;rotatable=0;points=[[0,0.5],[1,0.5]];portConstraint=eastwest;whiteSpace=wrap;html=1;" vertex="1" parent="VLd0et0WoPOrGzT45V3k-4">
          <mxGeometry y="60" width="440" height="60" as="geometry" />
        </mxCell>
        <mxCell id="VLd0et0WoPOrGzT45V3k-14" value="«FunctionCalls»&lt;br&gt;&lt;b&gt;MatchmakingAndLeaderboard&lt;/b&gt;" style="html=1;whiteSpace=wrap;" vertex="1" parent="WIyWlLk6GJQsqaUBKTNV-1">
          <mxGeometry x="302" width="190" height="50" as="geometry" />
        </mxCell>
        <mxCell id="VLd0et0WoPOrGzT45V3k-18" value="1" style="endArrow=open;html=1;endSize=12;startArrow=diamondThin;startSize=14;startFill=0;edgeStyle=orthogonalEdgeStyle;align=left;verticalAlign=bottom;rounded=0;exitX=1;exitY=0.5;exitDx=0;exitDy=0;entryX=0.5;entryY=0;entryDx=0;entryDy=0;" edge="1" parent="WIyWlLk6GJQsqaUBKTNV-1" source="VLd0et0WoPOrGzT45V3k-14" target="VLd0et0WoPOrGzT45V3k-4">
          <mxGeometry x="-1" y="3" relative="1" as="geometry">
            <mxPoint x="510" y="190" as="sourcePoint" />
            <mxPoint x="670" y="190" as="targetPoint" />
            <Array as="points">
              <mxPoint x="780" y="25" />
            </Array>
          </mxGeometry>
        </mxCell>
        <mxCell id="VLd0et0WoPOrGzT45V3k-19" value="1" style="endArrow=open;html=1;endSize=12;startArrow=diamondThin;startSize=14;startFill=0;edgeStyle=orthogonalEdgeStyle;align=left;verticalAlign=bottom;rounded=0;exitX=0;exitY=0.5;exitDx=0;exitDy=0;entryX=0.5;entryY=0;entryDx=0;entryDy=0;" edge="1" parent="WIyWlLk6GJQsqaUBKTNV-1" source="VLd0et0WoPOrGzT45V3k-14" target="VLd0et0WoPOrGzT45V3k-0">
          <mxGeometry x="-1" y="3" relative="1" as="geometry">
            <mxPoint x="360" y="240" as="sourcePoint" />
            <mxPoint x="520" y="240" as="targetPoint" />
          </mxGeometry>
        </mxCell>
        <mxCell id="VLd0et0WoPOrGzT45V3k-20" value="«FunctionCalls»&lt;div&gt;&lt;b&gt;AuthenticationAndProfile&lt;/b&gt;&lt;/div&gt;" style="html=1;whiteSpace=wrap;" vertex="1" parent="WIyWlLk6GJQsqaUBKTNV-1">
          <mxGeometry x="-260" y="208" width="160" height="50" as="geometry" />
        </mxCell>
        <mxCell id="VLd0et0WoPOrGzT45V3k-21" value="1" style="endArrow=open;html=1;endSize=12;startArrow=diamondThin;startSize=14;startFill=0;edgeStyle=orthogonalEdgeStyle;align=left;verticalAlign=bottom;rounded=0;exitX=1;exitY=0.5;exitDx=0;exitDy=0;entryX=0.5;entryY=0;entryDx=0;entryDy=0;" edge="1" parent="WIyWlLk6GJQsqaUBKTNV-1" source="VLd0et0WoPOrGzT45V3k-20" target="VLd0et0WoPOrGzT45V3k-0">
          <mxGeometry x="-1" y="3" relative="1" as="geometry">
            <mxPoint x="-50" y="200" as="sourcePoint" />
            <mxPoint x="110" y="200" as="targetPoint" />
          </mxGeometry>
        </mxCell>
        <mxCell id="VLd0et0WoPOrGzT45V3k-22" value="getWaitingPlayers()" style="text;html=1;align=center;verticalAlign=middle;resizable=0;points=[];autosize=1;strokeColor=none;fillColor=none;" vertex="1" parent="WIyWlLk6GJQsqaUBKTNV-1">
          <mxGeometry x="140" width="130" height="30" as="geometry" />
        </mxCell>
        <mxCell id="VLd0et0WoPOrGzT45V3k-23" value="createMatch(player1: Player, player2: Player, game: Game)" style="text;html=1;align=center;verticalAlign=middle;resizable=0;points=[];autosize=1;strokeColor=none;fillColor=none;" vertex="1" parent="WIyWlLk6GJQsqaUBKTNV-1">
          <mxGeometry x="500" width="340" height="30" as="geometry" />
        </mxCell>
        <mxCell id="VLd0et0WoPOrGzT45V3k-25" value="findRelatedPassword(String username)" style="text;html=1;align=center;verticalAlign=middle;resizable=0;points=[];autosize=1;strokeColor=none;fillColor=none;" vertex="1" parent="WIyWlLk6GJQsqaUBKTNV-1">
          <mxGeometry x="-90" y="208" width="230" height="30" as="geometry" />
        </mxCell>
        <mxCell id="VLd0et0WoPOrGzT45V3k-27" value="DatabaseStubs" style="swimlane;fontStyle=1;align=center;verticalAlign=top;childLayout=stackLayout;horizontal=1;startSize=26;horizontalStack=0;resizeParent=1;resizeParentMax=0;resizeLast=0;collapsible=1;marginBottom=0;whiteSpace=wrap;html=1;" vertex="1" parent="WIyWlLk6GJQsqaUBKTNV-1">
          <mxGeometry x="10" y="585" width="260" height="150" as="geometry" />
        </mxCell>
        <mxCell id="VLd0et0WoPOrGzT45V3k-28" value="&lt;div&gt;&lt;span style=&quot;background-color: transparent; color: light-dark(rgb(0, 0, 0), rgb(255, 255, 255));&quot;&gt;- PLAYER_DATABASE: ArrayList&amp;lt;Player&amp;gt;&lt;/span&gt;&lt;/div&gt;&lt;div&gt;- ONLINE_PLAYERS: queue&amp;lt;Player&amp;gt;&lt;/div&gt;&lt;div&gt;- ...&lt;/div&gt;" style="text;strokeColor=none;fillColor=none;align=left;verticalAlign=top;spacingLeft=4;spacingRight=4;overflow=hidden;rotatable=0;points=[[0,0.5],[1,0.5]];portConstraint=eastwest;whiteSpace=wrap;html=1;" vertex="1" parent="VLd0et0WoPOrGzT45V3k-27">
          <mxGeometry y="26" width="260" height="54" as="geometry" />
        </mxCell>
        <mxCell id="VLd0et0WoPOrGzT45V3k-29" value="" style="line;strokeWidth=1;fillColor=none;align=left;verticalAlign=middle;spacingTop=-1;spacingLeft=3;spacingRight=3;rotatable=0;labelPosition=right;points=[];portConstraint=eastwest;strokeColor=inherit;" vertex="1" parent="VLd0et0WoPOrGzT45V3k-27">
          <mxGeometry y="80" width="260" height="8" as="geometry" />
        </mxCell>
        <mxCell id="VLd0et0WoPOrGzT45V3k-30" value="&lt;div&gt;+ getPlayerDatabase(): ArrayList&amp;lt;Player&amp;gt;&lt;/div&gt;&lt;div&gt;+ getOnlinePlayers(): queue&amp;lt;Player&amp;gt;&lt;br&gt;&lt;div&gt;+ ...&lt;/div&gt;&lt;/div&gt;" style="text;strokeColor=none;fillColor=none;align=left;verticalAlign=top;spacingLeft=4;spacingRight=4;overflow=hidden;rotatable=0;points=[[0,0.5],[1,0.5]];portConstraint=eastwest;whiteSpace=wrap;html=1;" vertex="1" parent="VLd0et0WoPOrGzT45V3k-27">
          <mxGeometry y="88" width="260" height="62" as="geometry" />
        </mxCell>
        <mxCell id="VLd0et0WoPOrGzT45V3k-35" value="Match" style="html=1;whiteSpace=wrap;" vertex="1" parent="WIyWlLk6GJQsqaUBKTNV-1">
          <mxGeometry x="1260" y="100" width="110" height="50" as="geometry" />
        </mxCell>
        <mxCell id="VLd0et0WoPOrGzT45V3k-36" value="" style="endArrow=open;html=1;endSize=12;startArrow=diamondThin;startSize=14;startFill=0;edgeStyle=orthogonalEdgeStyle;align=left;verticalAlign=bottom;rounded=0;exitX=1;exitY=0.5;exitDx=0;exitDy=0;entryX=0.5;entryY=1;entryDx=0;entryDy=0;" edge="1" parent="WIyWlLk6GJQsqaUBKTNV-1" source="VLd0et0WoPOrGzT45V3k-5" target="VLd0et0WoPOrGzT45V3k-35">
          <mxGeometry x="-1" y="3" relative="1" as="geometry">
            <mxPoint x="1080" y="370" as="sourcePoint" />
            <mxPoint x="1120" y="190" as="targetPoint" />
          </mxGeometry>
        </mxCell>
        <mxCell id="VLd0et0WoPOrGzT45V3k-40" value="" style="endArrow=block;dashed=1;endFill=0;endSize=12;html=1;rounded=0;exitX=0.75;exitY=0;exitDx=0;exitDy=0;entryX=0;entryY=0.5;entryDx=0;entryDy=0;" edge="1" parent="WIyWlLk6GJQsqaUBKTNV-1" source="VLd0et0WoPOrGzT45V3k-4" target="VLd0et0WoPOrGzT45V3k-35">
          <mxGeometry width="160" relative="1" as="geometry">
            <mxPoint x="1050" y="320" as="sourcePoint" />
            <mxPoint x="1210" y="320" as="targetPoint" />
            <Array as="points">
              <mxPoint x="890" y="125" />
            </Array>
          </mxGeometry>
        </mxCell>
        <mxCell id="VLd0et0WoPOrGzT45V3k-42" value="updateGameState(player: Player, game_state: Game)" style="text;html=1;align=center;verticalAlign=middle;resizable=0;points=[];autosize=1;strokeColor=none;fillColor=none;" vertex="1" parent="WIyWlLk6GJQsqaUBKTNV-1">
          <mxGeometry x="1000" y="368" width="310" height="30" as="geometry" />
        </mxCell>
        <mxCell id="VLd0et0WoPOrGzT45V3k-43" value="Extends" style="endArrow=block;endSize=16;endFill=0;html=1;rounded=0;exitX=0.75;exitY=0;exitDx=0;exitDy=0;entryX=0.5;entryY=1;entryDx=0;entryDy=0;" edge="1" parent="WIyWlLk6GJQsqaUBKTNV-1" source="VLd0et0WoPOrGzT45V3k-0" target="zkfFHV4jXpPFQw0GAbJ--0">
          <mxGeometry width="160" relative="1" as="geometry">
            <mxPoint x="300" y="370" as="sourcePoint" />
            <mxPoint x="460" y="370" as="targetPoint" />
            <Array as="points">
              <mxPoint x="210" y="290" />
              <mxPoint x="450" y="290" />
            </Array>
          </mxGeometry>
        </mxCell>
        <mxCell id="VLd0et0WoPOrGzT45V3k-44" value="Extends" style="endArrow=block;endSize=16;endFill=0;html=1;rounded=0;exitX=0.25;exitY=0;exitDx=0;exitDy=0;entryX=0.5;entryY=1;entryDx=0;entryDy=0;" edge="1" parent="WIyWlLk6GJQsqaUBKTNV-1" source="VLd0et0WoPOrGzT45V3k-4" target="zkfFHV4jXpPFQw0GAbJ--0">
          <mxGeometry width="160" relative="1" as="geometry">
            <mxPoint x="450" y="340" as="sourcePoint" />
            <mxPoint x="610" y="340" as="targetPoint" />
            <Array as="points">
              <mxPoint x="670" y="290" />
              <mxPoint x="450" y="290" />
            </Array>
          </mxGeometry>
        </mxCell>
        <mxCell id="VLd0et0WoPOrGzT45V3k-45" value="" style="endArrow=block;dashed=1;endFill=0;endSize=12;html=1;rounded=0;entryX=0.5;entryY=0;entryDx=0;entryDy=0;" edge="1" parent="WIyWlLk6GJQsqaUBKTNV-1" source="VLd0et0WoPOrGzT45V3k-0" target="VLd0et0WoPOrGzT45V3k-27">
          <mxGeometry width="160" relative="1" as="geometry">
            <mxPoint x="140" y="450" as="sourcePoint" />
            <mxPoint x="300" y="450" as="targetPoint" />
          </mxGeometry>
        </mxCell>
      </root>
    </mxGraphModel>
  </diagram>
</mxfile>
